<svg id="icon_box" xmlns="http://www.w3.org/2000/svg" width="60" height="44" viewBox="0 0 60 44">
  <metadata><?xpacket begin="﻿" id="W5M0MpCehiHzreSzNTczkc9d"?>
<x:xmpmeta xmlns:x="adobe:ns:meta/" x:xmptk="Adobe XMP Core 5.6-c138 79.159824, 2016/09/14-01:09:01        ">
   <rdf:RDF xmlns:rdf="http://www.w3.org/1999/02/22-rdf-syntax-ns#">
      <rdf:Description rdf:about=""/>
   </rdf:RDF>
</x:xmpmeta>
                                                                                                    
                                                                                                    
                                                                                                    
                                                                                                    
                                                                                                    
                                                                                                    
                                                                                                    
                                                                                                    
                                                                                                    
                                                                                                    
                                                                                                    
                                                                                                    
                                                                                                    
                                                                                                    
                                                                                                    
                                                                                                    
                                                                                                    
                                                                                                    
                                                                                                    
                                                                                                    
                           
<?xpacket end="w"?></metadata>
<defs>
    <style>
      .cls-1 {
        fill: none;
        stroke: #d7569c;
        stroke-width: 2px;
        fill-rule: evenodd;
      }
    </style>
  </defs>
  <path id="Прямоугольник_4" data-name="Прямоугольник 4" class="cls-1" d="M518,2966h46a2,2,0,0,1,2,2v28a2,2,0,0,1-2,2H518a2,2,0,0,1-2-2v-28A2,2,0,0,1,518,2966Zm-3-10h54a2,2,0,0,1,2,2v8a2,2,0,0,1-2,2H515a2,2,0,0,1-2-2v-8A2,2,0,0,1,515,2956Z" transform="translate(-512 -2955)"/>
  <path id="Прямоугольник_5" data-name="Прямоугольник 5" class="cls-1" d="M522,2966h11a1,1,0,0,1,0,2H522A1,1,0,0,1,522,2966Zm27,0h11a1,1,0,0,1,0,2H549A1,1,0,0,1,549,2966Z" transform="translate(-512 -2955)"/>
  <path id="Прямоугольник_6" data-name="Прямоугольник 6" class="cls-1" d="M532,2956h18v29s-8-5.12-8-5c0,0.07-10,5-10,5v-29Z" transform="translate(-512 -2955)"/>
</svg>
