<svg id="icon_delivery" xmlns="http://www.w3.org/2000/svg" width="69" height="37" viewBox="0 0 69 37">
  <metadata><?xpacket begin="﻿" id="W5M0MpCehiHzreSzNTczkc9d"?>
<x:xmpmeta xmlns:x="adobe:ns:meta/" x:xmptk="Adobe XMP Core 5.6-c138 79.159824, 2016/09/14-01:09:01        ">
   <rdf:RDF xmlns:rdf="http://www.w3.org/1999/02/22-rdf-syntax-ns#">
      <rdf:Description rdf:about=""/>
   </rdf:RDF>
</x:xmpmeta>
                                                                                                    
                                                                                                    
                                                                                                    
                                                                                                    
                                                                                                    
                                                                                                    
                                                                                                    
                                                                                                    
                                                                                                    
                                                                                                    
                                                                                                    
                                                                                                    
                                                                                                    
                                                                                                    
                                                                                                    
                                                                                                    
                                                                                                    
                                                                                                    
                                                                                                    
                                                                                                    
                           
<?xpacket end="w"?></metadata>
<defs>
    <style>
      .cls-1, .cls-2 {
        fill: none;
      }

      .cls-1, .cls-2, .cls-3, .cls-4 {
        stroke: #d7569c;
        stroke-width: 2px;
      }

      .cls-1, .cls-3, .cls-4 {
        fill-rule: evenodd;
      }

      .cls-3 {
        fill: #e8e8e8;
      }

      .cls-4 {
        fill: #d7569c;
      }
    </style>
  </defs>
  <path id="Фигура_3" data-name="Фигура 3" class="cls-1" d="M514,2799h9v-8h34v30H523v-8h-8" transform="translate(-506 -2790)"/>
  <path id="Прямоугольник_7" data-name="Прямоугольник 7" class="cls-2" d="M49,6h9A10,10,0,0,1,68,16V31a0,0,0,0,1,0,0H49a0,0,0,0,1,0,0V6A0,0,0,0,1,49,6Z"/>
  <path id="Эллипс_1" data-name="Эллипс 1" class="cls-3" d="M534,2816a5,5,0,1,1-5,5A5,5,0,0,1,534,2816Zm31,0a5,5,0,1,1-5,5A5,5,0,0,1,565,2816Z" transform="translate(-506 -2790)"/>
  <path id="Прямоугольник_9" data-name="Прямоугольник 9" class="cls-4" d="M537.171,2801.17a1,1,0,0,1,1.415,0l4.242,4.24a1,1,0,0,1-1.414,1.42l-4.243-4.24A1.008,1.008,0,0,1,537.171,2801.17Zm5.657,4a0.994,0.994,0,0,1,0,1.41l-4.242,4.25a1,1,0,0,1-1.415-1.42l4.243-4.24A1,1,0,0,1,542.828,2805.17ZM508,2805h33a1,1,0,0,1,0,2H508A1,1,0,0,1,508,2805Z" transform="translate(-506 -2790)"/>
</svg>
