<svg id="icon_map" xmlns="http://www.w3.org/2000/svg" width="54" height="49" viewBox="0 0 54 49">
  <metadata><?xpacket begin="﻿" id="W5M0MpCehiHzreSzNTczkc9d"?>
<x:xmpmeta xmlns:x="adobe:ns:meta/" x:xmptk="Adobe XMP Core 5.6-c138 79.159824, 2016/09/14-01:09:01        ">
   <rdf:RDF xmlns:rdf="http://www.w3.org/1999/02/22-rdf-syntax-ns#">
      <rdf:Description rdf:about=""/>
   </rdf:RDF>
</x:xmpmeta>
                                                                                                    
                                                                                                    
                                                                                                    
                                                                                                    
                                                                                                    
                                                                                                    
                                                                                                    
                                                                                                    
                                                                                                    
                                                                                                    
                                                                                                    
                                                                                                    
                                                                                                    
                                                                                                    
                                                                                                    
                                                                                                    
                                                                                                    
                                                                                                    
                                                                                                    
                                                                                                    
                           
<?xpacket end="w"?></metadata>
<defs>
    <style>
      .cls-1, .cls-2 {
        fill: none;
        stroke: #d7569c;
        stroke-width: 2px;
        fill-rule: evenodd;
      }

      .cls-2 {
        stroke-linecap: round;
        stroke-linejoin: round;
      }
    </style>
  </defs>
  <path id="Эллипс_2" data-name="Эллипс 2" class="cls-1" d="M525,3127a12,12,0,0,1,12,12c0,6.63-10.994,20.88-11,21,0,0.02-13-14.37-13-21A12,12,0,0,1,525,3127Zm0,7a5,5,0,1,1-5,5A5,5,0,0,1,525,3134Z" transform="translate(-512 -3112)"/>
  <path id="Эллипс_2_копия" data-name="Эллипс 2 копия" class="cls-1" d="M556,3113a8.869,8.869,0,0,1,9,8.73c0,4.82-8.246,15.18-8.25,15.27,0,0.01-9.75-10.45-9.75-15.27A8.869,8.869,0,0,1,556,3113Zm0.25,7.09a2,2,0,1,1-2,2A2,2,0,0,1,556.25,3120.09Z" transform="translate(-512 -3112)"/>
  <path id="Фигура_4" data-name="Фигура 4" class="cls-2" d="M532,3157h22s8,1.54,8-5c0-6.66-9-5-9-5h-5s-6,.63-6-5c0-6.2,6-6,6-6h2" transform="translate(-512 -3112)"/>
</svg>
